<svg width="18" height="19" viewBox="0 0 18 19" fill="none" xmlns="http://www.w3.org/2000/svg">
<path d="M12.615 2.28201C9.73328 -0.760669 5.04392 -0.760669 2.16177 2.28201C-0.720591 5.3239 -0.720591 10.2742 2.16177 13.3163C4.94505 16.2542 9.41361 16.3542 12.3124 13.6178L12.8984 14.2366C12.7525 14.6309 12.829 15.0955 13.1306 15.4139L16.2228 18.678C16.6293 19.1073 17.2887 19.1073 17.6949 18.678C18.1017 18.2491 18.1017 17.5533 17.6949 17.1238L14.603 13.8604C14.3011 13.5414 13.8608 13.4607 13.4873 13.615L12.9012 12.9962C15.494 9.93645 15.3984 5.2195 12.615 2.28201ZM3.04509 12.3841C0.650077 9.85626 0.650077 5.7422 3.04509 3.21405C5.43988 0.685909 9.33715 0.685909 11.7321 3.21405C14.1271 5.7422 14.1271 9.85621 11.7321 12.3841C9.33715 14.912 5.43988 14.912 3.04509 12.3841Z" fill="black"/>
</svg>
