<svg width="18" height="18" viewBox="0 0 18 18" fill="none" xmlns="http://www.w3.org/2000/svg">
<path d="M12.615 2.09339C9.73328 -0.697796 5.04392 -0.697796 2.16177 2.09339C-0.720591 4.88386 -0.720591 9.42497 2.16177 12.2156C4.94505 14.9108 9.41361 15.0025 12.3124 12.4922L12.8984 13.0599C12.7525 13.4216 12.829 13.8478 13.1306 14.1399L16.2228 17.1342C16.6293 17.528 17.2887 17.528 17.6949 17.1342C18.1017 16.7408 18.1017 16.1024 17.6949 15.7084L14.603 12.7147C14.3011 12.4222 13.8608 12.3482 13.4873 12.4897L12.9012 11.922C15.494 9.11516 15.3984 4.78808 12.615 2.09339ZM3.04509 11.3605C0.650077 9.04159 0.650077 5.26758 3.04509 2.94839C5.43988 0.629216 9.33715 0.629216 11.7321 2.94839C14.1271 5.26758 14.1271 9.04155 11.7321 11.3605C9.33715 13.6794 5.43988 13.6794 3.04509 11.3605Z" fill="black"/>
</svg>
